# xmcd CD database file
#
# Track frame offsets:
#	187
#	19275
#	35587
#	54225
#	75037
#	93412
#	113975
#	129112
#	147037
#	164875
#
# Disc length: 2453 seconds
#
# Revision: 0
# Processed by: cddbd v1.5.1PL0 Copyright (c) Steve Scherf et al.
# Submitted via: CDex 1.51
#
DISCID=7709930a
DTITLE=大西結花 - Peppermint Mocha
DYEAR=1988
DGENRE=JPop
TTITLE0=MY POLESTAR
TTITLE1=レディ・ジェーンの憂鬱
TTITLE2=あなたは何かを隠してる
TTITLE3=ノース・ウィンドの日
TTITLE4=シティ・ライツに踊らせて
TTITLE5=チューリップの蕾
TTITLE6=彼の右手はラブ・ジャック
TTITLE7=今どきの少年
TTITLE8=星屑を髪に飾って
TTITLE9=粉雪物語 -SNOW WHITE TALES-
EXTD=YEAR: 1988
EXTT0=
EXTT1=
EXTT2=
EXTT3=
EXTT4=
EXTT5=
EXTT6=
EXTT7=
EXTT8=
EXTT9=
PLAYORDER=
